<svg xmlns="http://www.w3.org/2000/svg" viewBox="0 0 1600 900" role="img" aria-labelledby="title desc">
  <title id="title">Ilustração de salão de beleza</title>
  <desc id="desc">Mulher em salão recebendo cuidados de cabelo e unhas, com esmaltes e ambiente elegante.</desc>
  <defs>
    <linearGradient id="bg" x1="0" x2="1" y1="0" y2="1">
      <stop offset="0%" stop-color="#2a1833"/>
      <stop offset="48%" stop-color="#6c3483"/>
      <stop offset="100%" stop-color="#f4eaf7"/>
    </linearGradient>
    <linearGradient id="floor" x1="0" x2="1">
      <stop offset="0%" stop-color="#221629"/>
      <stop offset="100%" stop-color="#5a2d6e"/>
    </linearGradient>
    <radialGradient id="glow" cx="70%" cy="28%" r="58%">
      <stop offset="0%" stop-color="#ffffff" stop-opacity=".48"/>
      <stop offset="58%" stop-color="#c79adb" stop-opacity=".14"/>
      <stop offset="100%" stop-color="#2a1833" stop-opacity="0"/>
    </radialGradient>
    <filter id="softShadow" x="-20%" y="-20%" width="140%" height="140%">
      <feDropShadow dx="0" dy="18" stdDeviation="18" flood-color="#1c1022" flood-opacity=".32"/>
    </filter>
  </defs>

  <rect width="1600" height="900" fill="url(#bg)"/>
  <rect width="1600" height="900" fill="url(#glow)"/>
  <path d="M0 710 C280 650 490 710 760 674 C1060 635 1270 674 1600 610 L1600 900 L0 900 Z" fill="url(#floor)" opacity=".88"/>

  <g opacity=".24">
    <rect x="1070" y="96" width="300" height="470" rx="18" fill="#fff"/>
    <rect x="1100" y="130" width="240" height="72" rx="10" fill="#6c3483"/>
    <rect x="1100" y="230" width="240" height="72" rx="10" fill="#8e44ad"/>
    <rect x="1100" y="330" width="240" height="72" rx="10" fill="#6c3483"/>
    <rect x="1100" y="430" width="240" height="72" rx="10" fill="#8e44ad"/>
  </g>

  <g transform="translate(220 120)" filter="url(#softShadow)">
    <ellipse cx="326" cy="240" rx="168" ry="198" fill="#2d172a"/>
    <path d="M215 312 C186 383 174 450 202 518 C238 604 400 615 455 534 C500 469 482 377 440 316 Z" fill="#2d172a"/>
    <circle cx="334" cy="250" r="112" fill="#b76f58"/>
    <path d="M222 242 C258 116 422 116 463 251 C397 205 294 196 222 242 Z" fill="#2d172a"/>
    <path d="M292 292 C316 317 360 316 383 292" fill="none" stroke="#6f3028" stroke-width="8" stroke-linecap="round"/>
    <circle cx="292" cy="246" r="8" fill="#2a1833"/>
    <circle cx="379" cy="246" r="8" fill="#2a1833"/>
    <path d="M251 411 C293 372 390 370 431 411 L470 648 L210 648 Z" fill="#f4eaf7"/>
    <path d="M250 430 L197 555 C187 580 205 608 233 608 L325 608" fill="none" stroke="#b76f58" stroke-width="34" stroke-linecap="round"/>
    <path d="M430 430 L486 555 C497 580 479 608 451 608 L365 608" fill="none" stroke="#b76f58" stroke-width="34" stroke-linecap="round"/>
    <path d="M208 648 L472 648 L500 760 L180 760 Z" fill="#8e44ad"/>
  </g>

  <g transform="translate(560 225)" filter="url(#softShadow)">
    <rect x="0" y="315" width="560" height="74" rx="28" fill="#fff9fc"/>
    <rect x="62" y="350" width="126" height="28" rx="14" fill="#d9bfdc"/>
    <rect x="214" y="350" width="126" height="28" rx="14" fill="#d9bfdc"/>
    <rect x="366" y="350" width="126" height="28" rx="14" fill="#d9bfdc"/>
    <path d="M86 330 C150 288 224 288 290 330" fill="none" stroke="#b76f58" stroke-width="26" stroke-linecap="round"/>
    <circle cx="138" cy="339" r="18" fill="#c0399a"/>
    <circle cx="287" cy="339" r="18" fill="#8e44ad"/>
    <g transform="translate(390 138)">
      <rect x="0" y="106" width="92" height="210" rx="20" fill="#e9d7ef"/>
      <rect x="20" y="34" width="52" height="96" rx="16" fill="#f4eaf7"/>
      <rect x="18" y="145" width="56" height="130" rx="18" fill="#8e44ad"/>
      <rect x="35" y="0" width="22" height="54" rx="8" fill="#6c3483"/>
    </g>
    <g transform="translate(494 176)">
      <rect x="0" y="75" width="76" height="170" rx="18" fill="#f1dbe9"/>
      <rect x="17" y="0" width="42" height="94" rx="14" fill="#fff9fc"/>
      <rect x="15" y="108" width="46" height="98" rx="16" fill="#c95f9f"/>
    </g>
  </g>

  <g transform="translate(830 160)" filter="url(#softShadow)">
    <path d="M70 80 C152 10 292 30 344 118 C376 174 360 253 314 306 C260 368 154 364 98 315 C30 255 2 139 70 80 Z" fill="#3a213e"/>
    <circle cx="196" cy="194" r="95" fill="#c78a6f"/>
    <path d="M110 190 C144 104 251 98 307 172 C258 150 179 148 110 190 Z" fill="#3a213e"/>
    <path d="M158 235 C180 254 213 255 236 235" fill="none" stroke="#6f3028" stroke-width="7" stroke-linecap="round"/>
    <path d="M105 320 C154 285 244 286 290 320 L340 560 L60 560 Z" fill="#fff9fc"/>
    <path d="M94 380 C70 446 54 512 84 566" fill="none" stroke="#c78a6f" stroke-width="30" stroke-linecap="round"/>
    <path d="M296 380 C336 436 350 500 328 566" fill="none" stroke="#c78a6f" stroke-width="30" stroke-linecap="round"/>
    <path d="M66 560 L340 560 L374 706 L32 706 Z" fill="#6c3483"/>
  </g>

  <g opacity=".72">
    <circle cx="136" cy="132" r="8" fill="#f4eaf7"/>
    <circle cx="1480" cy="186" r="10" fill="#f4eaf7"/>
    <circle cx="1236" cy="724" r="7" fill="#f4eaf7"/>
    <path d="M134 170 C160 146 188 146 214 170" fill="none" stroke="#f4eaf7" stroke-width="5" stroke-linecap="round"/>
    <path d="M1310 138 C1342 110 1380 110 1410 138" fill="none" stroke="#f4eaf7" stroke-width="5" stroke-linecap="round"/>
  </g>
</svg>
